<svg width="32" height="32" viewBox="0 0 32 32" fill="none" xmlns="http://www.w3.org/2000/svg">
<path d="M25.2019 10.6596C25.2908 10.2276 25.3353 9.78312 25.3353 9.32623C25.3343 8.39481 25.1382 7.47392 24.7596 6.62293C24.381 5.77193 23.8283 5.00972 23.137 4.38543C22.4458 3.76113 21.6314 3.28861 20.7464 2.99832C19.8614 2.70802 18.9253 2.60641 17.9986 2.70001C17.0719 2.79362 16.1751 3.08037 15.366 3.54179C14.5569 4.00321 13.8535 4.62904 13.3011 5.37896C12.7486 6.12888 12.3595 6.98623 12.1587 7.89575C11.9579 8.80527 11.9499 9.74677 12.1353 10.6596M21.3353 18.6596C21.3353 19.19 21.546 19.6987 21.9211 20.0738C22.2961 20.4488 22.8048 20.6596 23.3353 20.6596C23.8657 20.6596 24.3744 20.4488 24.7495 20.0738C25.1246 19.6987 25.3353 19.19 25.3353 18.6596C25.3353 18.1291 25.1246 17.6204 24.7495 17.2453C24.3744 16.8703 23.8657 16.6596 23.3353 16.6596C22.8048 16.6596 22.2961 16.8703 21.9211 17.2453C21.546 17.6204 21.3353 18.1291 21.3353 18.6596Z" stroke="#FF557E" stroke-width="1.73333" stroke-linecap="round" stroke-linejoin="round"/>
<path d="M9.33464 10.6504H21.3346C25.1053 10.6504 26.992 10.6504 28.1626 11.8237C29.3346 12.9944 29.3346 14.8811 29.3346 18.6544V21.3224C29.3346 25.0957 29.3346 26.9824 28.1626 28.1544C26.992 29.3264 25.1053 29.3264 21.3346 29.3264H13.3346C8.30664 29.3264 5.79197 29.3264 4.23064 27.7637C2.6693 26.2011 2.66797 23.6851 2.66797 18.6544V15.9878C2.66797 10.9557 2.66797 8.44108 4.23064 6.87708C5.48797 5.61975 7.3613 5.37442 10.668 5.32642H13.3346" stroke="#FF557E" stroke-width="1.73333" stroke-linecap="round" stroke-linejoin="round"/>
</svg>
