<svg width="24" height="25" viewBox="0 0 24 25" fill="none" xmlns="http://www.w3.org/2000/svg">
<path d="M15 7.60156H18C18.6566 7.60156 19.3068 7.73089 19.9134 7.98216C20.52 8.23344 21.0712 8.60174 21.5355 9.06603C21.9998 9.53032 22.3681 10.0815 22.6194 10.6881C22.8707 11.2948 23 11.945 23 12.6016C23 13.2582 22.8707 13.9084 22.6194 14.515C22.3681 15.1216 21.9998 15.6728 21.5355 16.1371C21.0712 16.6014 20.52 16.9697 19.9134 17.221C19.3068 17.4722 18.6566 17.6016 18 17.6016H15M9 17.6016H6C5.34339 17.6016 4.69321 17.4722 4.08658 17.221C3.47995 16.9697 2.92876 16.6014 2.46447 16.1371C1.52678 15.1994 1 13.9276 1 12.6016C1 11.2755 1.52678 10.0037 2.46447 9.06603C3.40215 8.12835 4.67392 7.60156 6 7.60156H9" stroke="#A1A1A1" stroke-width="1.3" stroke-linecap="round" stroke-linejoin="round"/>
<path d="M8 12.6016L10 12.6016" stroke="#A1A1A1" stroke-width="1.3" stroke-linecap="round" stroke-linejoin="round"/>
<path d="M14 12.6016L16 12.6016" stroke="#A1A1A1" stroke-width="1.3" stroke-linecap="round" stroke-linejoin="round"/>
<path d="M14.1895 2.60156L10 22.6016" stroke="#A1A1A1" stroke-width="1.3" stroke-linecap="round"/>
</svg>
