<svg width="78" height="79" viewBox="0 0 78 79" fill="none" xmlns="http://www.w3.org/2000/svg">
<rect x="0.5" y="1.10156" width="77" height="77" rx="38.5" fill="#FFDAE3"/>
<rect x="0.5" y="1.10156" width="77" height="77" rx="38.5" stroke="#FF557E"/>
<path d="M27 31.6016H29.6667H51" stroke="#FF557E" stroke-width="1.3" stroke-linecap="round" stroke-linejoin="round"/>
<path d="M48.3327 31.6009V50.2676C48.3327 50.9748 48.0517 51.6531 47.5516 52.1532C47.0515 52.6533 46.3733 52.9342 45.666 52.9342H32.3327C31.6254 52.9342 30.9472 52.6533 30.4471 52.1532C29.947 51.6531 29.666 50.9748 29.666 50.2676V31.6009M33.666 31.6009V28.9342C33.666 28.227 33.947 27.5487 34.4471 27.0486C34.9472 26.5485 35.6254 26.2676 36.3327 26.2676H41.666C42.3733 26.2676 43.0515 26.5485 43.5516 27.0486C44.0517 27.5487 44.3327 28.227 44.3327 28.9342V31.6009" stroke="#FF557E" stroke-width="1.3" stroke-linecap="round" stroke-linejoin="round"/>
<path d="M36.334 38.2676V46.2676" stroke="#FF557E" stroke-width="1.3" stroke-linecap="round" stroke-linejoin="round"/>
<path d="M41.666 38.2676V46.2676" stroke="#FF557E" stroke-width="1.3" stroke-linecap="round" stroke-linejoin="round"/>
</svg>
