<svg width="92" height="92" viewBox="0 0 92 92" fill="none" xmlns="http://www.w3.org/2000/svg">
<g clip-path="url(#clip0_1968_30063)">
<path d="M70.4375 0H21.5625C9.65386 0 0 9.65386 0 21.5625V70.4375C0 82.3461 9.65386 92 21.5625 92H70.4375C82.3461 92 92 82.3461 92 70.4375V21.5625C92 9.65386 82.3461 0 70.4375 0Z" fill="#5865F2"/>
<mask id="mask0_1968_30063" style="mask-type:luminance" maskUnits="userSpaceOnUse" x="10" y="18" width="72" height="57">
<path d="M10.0625 18.3281H81.9375V74.0061H10.0625V18.3281Z" fill="white"/>
</mask>
<g mask="url(#mask0_1968_30063)">
<path d="M70.9073 23.2719C66.2474 21.1332 61.3298 19.6078 56.2775 18.7341C56.2316 18.7257 56.1843 18.732 56.1421 18.7519C56.0999 18.7719 56.0651 18.8047 56.0425 18.8455C55.4107 19.9689 54.7107 21.4352 54.2208 22.5873C48.6962 21.76 43.2003 21.76 37.7891 22.5873C37.299 21.4093 36.5737 19.9689 35.9391 18.8455C35.9157 18.8053 35.8807 18.7732 35.8387 18.7533C35.7966 18.7334 35.7496 18.7267 35.7037 18.7341C30.6509 19.6059 25.7331 21.1313 21.0739 23.2719C21.0342 23.2892 21.0007 23.318 20.9776 23.3546C11.6597 37.2753 9.10742 50.854 10.3595 64.2644C10.3671 64.3306 10.4007 64.3911 10.4529 64.4326C16.6004 68.9474 22.5556 71.6884 28.4001 73.505C28.4456 73.5185 28.4941 73.5178 28.5391 73.503C28.5842 73.4882 28.6237 73.4601 28.6524 73.4223C30.0349 71.5342 31.2672 69.5436 32.3241 67.4502C32.3387 67.4216 32.347 67.3901 32.3485 67.358C32.35 67.3259 32.3447 67.2938 32.3329 67.2639C32.3212 67.234 32.3032 67.2069 32.2801 67.1845C32.2571 67.162 32.2296 67.1447 32.1994 67.1336C30.2444 66.3919 28.3832 65.4881 26.5928 64.4613C26.5602 64.4421 26.5328 64.4152 26.5131 64.3829C26.4933 64.3506 26.4818 64.314 26.4796 64.2762C26.4774 64.2384 26.4845 64.2006 26.5002 64.1662C26.516 64.1319 26.5401 64.1019 26.5702 64.079C26.9479 63.7966 27.3191 63.5057 27.6835 63.2064C27.7155 63.1801 27.7541 63.1632 27.7951 63.1576C27.8361 63.152 27.8779 63.158 27.9157 63.1748C39.6787 68.5453 52.4132 68.5453 64.0372 63.1748C64.0751 63.1569 64.1174 63.1501 64.159 63.1552C64.2007 63.1603 64.24 63.177 64.2726 63.2035C64.6374 63.5045 65.0096 63.7964 65.3888 64.079C65.419 64.1017 65.4432 64.1314 65.4593 64.1657C65.4753 64.2 65.4827 64.2376 65.4807 64.2754C65.4788 64.3132 65.4676 64.3499 65.4481 64.3823C65.4286 64.4147 65.4015 64.4419 65.369 64.4613C63.5776 65.5074 61.7011 66.4003 59.7595 67.1308C59.7295 67.1424 59.7022 67.1602 59.6794 67.183C59.6567 67.2059 59.639 67.2333 59.6275 67.2634C59.616 67.2935 59.611 67.3257 59.6127 67.3579C59.6145 67.3901 59.623 67.4216 59.6377 67.4502C60.7129 69.5271 61.939 71.5222 63.3062 73.4195C63.3342 73.4581 63.3735 73.4871 63.4187 73.5025C63.4639 73.5178 63.5128 73.5187 63.5585 73.505C69.4314 71.6884 75.3866 68.9474 81.5344 64.4326C81.5607 64.4131 81.5826 64.3883 81.5987 64.3598C81.6148 64.3314 81.6247 64.2998 81.6279 64.2673C83.1265 48.7635 79.1176 35.2959 71.0008 23.3575C70.9811 23.3185 70.9478 23.2881 70.9073 23.2719ZM34.0808 56.099C30.5391 56.099 27.621 52.8478 27.621 48.8547C27.621 44.8617 30.4827 41.6105 34.0808 41.6105C37.7068 41.6105 40.5966 44.8905 40.5398 48.8547C40.5398 52.8478 37.6785 56.099 34.0808 56.099ZM57.9634 56.099C54.4217 56.099 51.504 52.8478 51.504 48.8547C51.504 44.8617 54.3653 41.6105 57.9634 41.6105C61.5895 41.6105 64.4792 44.8905 64.4228 48.8547C64.4228 52.8478 61.5895 56.099 57.9634 56.099Z" fill="white"/>
</g>
</g>
<defs>
<clipPath id="clip0_1968_30063">
<rect width="92" height="92" fill="white"/>
</clipPath>
</defs>
</svg>
