<svg width="32" height="32" viewBox="0 0 32 32" fill="none" xmlns="http://www.w3.org/2000/svg">
<path d="M3.33203 16.0026C3.33203 10.0319 3.33203 7.04527 5.1867 5.1906C7.04136 3.33594 10.0267 3.33594 15.9987 3.33594C21.9694 3.33594 24.956 3.33594 26.8107 5.1906C28.6654 7.04527 28.6654 10.0306 28.6654 16.0026C28.6654 21.9733 28.6654 24.9599 26.8107 26.8146C24.956 28.6693 21.9707 28.6693 15.9987 28.6693C10.028 28.6693 7.04136 28.6693 5.1867 26.8146C3.33203 24.9599 3.33203 21.9746 3.33203 16.0026Z" stroke="#FF557E" stroke-width="1.73333" stroke-linecap="round" stroke-linejoin="round"/>
<path d="M16.0012 9.38672V18.7867C16.4358 18.7921 16.8638 18.4934 17.1812 18.1294L19.3012 15.7521M15.9998 18.7867C15.5812 18.7814 15.1558 18.4841 14.8198 18.1281L12.6905 15.7534M10.6465 22.7214H21.3132" stroke="#FF557E" stroke-width="1.73333" stroke-linecap="round" stroke-linejoin="round"/>
</svg>
