<svg width="16" height="14" viewBox="0 0 16 14" fill="none" xmlns="http://www.w3.org/2000/svg">
<path d="M8.58333 2.83681C8.9 2.64236 9.11111 2.28958 9.11111 1.89236C9.11111 1.27847 8.61389 0.78125 8 0.78125C7.38611 0.78125 6.88889 1.27847 6.88889 1.89236C6.88889 2.29236 7.1 2.64236 7.41667 2.83681L5.825 6.02014C5.57222 6.52569 4.91667 6.67014 4.475 6.31736L2 4.33681C2.13889 4.15069 2.22222 3.92014 2.22222 3.67014C2.22222 3.05625 1.725 2.55903 1.11111 2.55903C0.497222 2.55903 0 3.05625 0 3.67014C0 4.28403 0.497222 4.78125 1.11111 4.78125H1.13056L2.4 11.7646C2.55278 12.609 3.28889 13.2257 4.15 13.2257H11.85C12.7083 13.2257 13.4444 12.6118 13.6 11.7646L14.8694 4.78125H14.8889C15.5028 4.78125 16 4.28403 16 3.67014C16 3.05625 15.5028 2.55903 14.8889 2.55903C14.275 2.55903 13.7778 3.05625 13.7778 3.67014C13.7778 3.92014 13.8611 4.15069 14 4.33681L11.525 6.31736C11.0833 6.67014 10.4278 6.52569 10.175 6.02014L8.58333 2.83681Z" fill="white"/>
</svg>
