<svg width="78" height="78" viewBox="0 0 78 78" fill="none" xmlns="http://www.w3.org/2000/svg">
<path d="M70.8952 39.1016H51.6452L45.2285 48.7266H32.3952L25.9785 39.1016H6.72852" stroke="#5585FF" stroke-width="4.17083" stroke-linecap="round" stroke-linejoin="round"/>
<path d="M17.7973 16.9968L6.72852 39.1022V58.3522C6.72852 60.054 7.40456 61.6861 8.60791 62.8895C9.81127 64.0928 11.4434 64.7689 13.1452 64.7689H64.4785C66.1803 64.7689 67.8124 64.0928 69.0158 62.8895C70.2191 61.6861 70.8952 60.054 70.8952 58.3522V39.1022L59.8264 16.9968C59.2952 15.9277 58.4763 15.0281 57.4617 14.3989C56.4472 13.7698 55.2773 13.4362 54.0835 13.4355H23.5402C22.3464 13.4362 21.1765 13.7698 20.162 14.3989C19.1474 15.0281 18.3285 15.9277 17.7973 16.9968Z" stroke="#5585FF" stroke-width="4.17083" stroke-linecap="round" stroke-linejoin="round"/>
</svg>
