<svg width="32" height="32" viewBox="0 0 32 32" fill="none" xmlns="http://www.w3.org/2000/svg">
<path d="M5.33333 14.668V20.0013C5.33333 24.4013 5.33333 26.6013 6.7 27.968C8.06667 29.3346 10.2667 29.3346 14.6667 29.3346H17.3333C21.7333 29.3346 23.9333 29.3346 25.3 27.968C26.6667 26.6013 26.6667 24.4013 26.6667 20.0013V14.668M16 7.81064C16 6.44672 15.4582 5.13866 14.4937 4.17422C13.5293 3.20978 12.2213 2.66797 10.8573 2.66797H10.3813C9.06667 2.66797 8 3.7333 8 5.0493C8 6.18584 8.45149 7.27583 9.25515 8.07949C10.0588 8.88315 11.1488 9.33464 12.2853 9.33464H16M16 7.81064V9.33464M16 7.81064C16 6.44672 16.5418 5.13866 17.5063 4.17422C18.4707 3.20978 19.7787 2.66797 21.1427 2.66797H21.6187C22.9333 2.66797 24 3.7333 24 5.0493C24 5.61206 23.8892 6.16931 23.6738 6.68923C23.4584 7.20915 23.1428 7.68156 22.7449 8.07949C22.3469 8.47742 21.8745 8.79308 21.3546 9.00843C20.8347 9.22379 20.2774 9.33464 19.7147 9.33464H16M16 14.668V29.3346M4 12.0013C4 11.004 4 10.5053 4.268 10.1346C4.45808 9.87996 4.71004 9.67803 5 9.54797C5.464 9.33464 6.08667 9.33464 7.33333 9.33464H24.6667C25.9133 9.33464 26.536 9.33464 27 9.54797C27.304 9.6893 27.556 9.89197 27.732 10.1346C28 10.5053 28 11.004 28 12.0013C28 12.9986 28 13.496 27.732 13.868C27.5419 14.1226 27.29 14.3246 27 14.4546C26.536 14.668 25.9133 14.668 24.6667 14.668H7.33333C6.08667 14.668 5.464 14.668 5 14.4546C4.71004 14.3246 4.45808 14.1226 4.268 13.868C4 13.496 4 12.9986 4 12.0013Z" stroke="#FF557E" stroke-width="1.73333" stroke-linecap="round" stroke-linejoin="round"/>
</svg>
