<svg width="16" height="16" viewBox="0 0 16 16" fill="none" xmlns="http://www.w3.org/2000/svg">
<path d="M1.33594 14.6656V13.3323C1.33594 13.3323 4.66927 11.999 8.0026 11.999C11.3359 11.999 14.6693 13.3323 14.6693 13.3323V14.6656H1.33594ZM7.53594 6.06564C6.73594 3.46564 2.66927 4.06564 2.66927 4.06564C2.66927 4.06564 2.8026 9.26564 6.6026 8.46564C6.33594 6.53231 5.33594 5.99898 5.33594 5.99898C7.2026 5.99898 7.33594 8.26564 7.33594 8.26564V11.3323H8.66927V8.53231C8.66927 8.53231 8.66927 5.93231 10.6693 5.26564C10.6693 5.26564 9.33594 7.26564 9.33594 8.59898C14.0026 9.06564 14.0026 2.66564 14.0026 2.66564C14.0026 2.66564 8.06927 1.99898 7.53594 6.06564Z" fill="#44CC83"/>
</svg>
