<svg width="14" height="13" viewBox="0 0 14 13" fill="none" xmlns="http://www.w3.org/2000/svg">
<path d="M0.335938 12.6656V11.3323C0.335938 11.3323 3.66927 9.99898 7.0026 9.99898C10.3359 9.99898 13.6693 11.3323 13.6693 11.3323V12.6656H0.335938ZM6.53594 4.06564C5.73594 1.46564 1.66927 2.06564 1.66927 2.06564C1.66927 2.06564 1.8026 7.26564 5.6026 6.46564C5.33594 4.53231 4.33594 3.99898 4.33594 3.99898C6.2026 3.99898 6.33594 6.26564 6.33594 6.26564V9.33231H7.66927V6.53231C7.66927 6.53231 7.66927 3.93231 9.66927 3.26564C9.66927 3.26564 8.33594 5.26564 8.33594 6.59898C13.0026 7.06564 13.0026 0.665644 13.0026 0.665644C13.0026 0.665644 7.06927 -0.00102234 6.53594 4.06564Z" fill="white"/>
</svg>
