<svg width="32" height="32" viewBox="0 0 32 32" fill="none" xmlns="http://www.w3.org/2000/svg">
<path d="M4 16H12M16 4V10.6667M28 16H20C18.1147 16 17.172 16 16.5867 16.5867C16 17.1707 16 18.1133 16 20M16 23.6933V27.384M20 20V22C20 23.928 21.0453 24 22.6667 24C23.0203 24 23.3594 24.1405 23.6095 24.3905C23.8595 24.6406 24 24.9797 24 25.3333M21.3333 28H20M24 20C25.8853 20 26.828 20 27.4133 20.5867C27.9987 21.1733 28 22.1173 28 24.0053C28 25.8933 28 26.8387 27.4133 27.4253C26.9867 27.852 26.3693 27.9693 25.3333 28M4 8C4 6.11467 4 5.172 4.58667 4.58667C5.17067 4 6.11333 4 8 4C9.88667 4 10.828 4 11.4133 4.58667C12 5.17067 12 6.11333 12 8C12 9.88667 12 10.828 11.4133 11.4133C10.8293 12 9.88667 12 8 12C6.11333 12 5.172 12 4.58667 11.4133C4 10.8293 4 9.88667 4 8ZM4 24C4 22.1147 4 21.172 4.58667 20.5867C5.17067 20 6.11333 20 8 20C9.88667 20 10.828 20 11.4133 20.5867C12 21.1707 12 22.1133 12 24C12 25.8867 12 26.828 11.4133 27.4133C10.8293 28 9.88667 28 8 28C6.11333 28 5.172 28 4.58667 27.4133C4 26.8293 4 25.8867 4 24ZM20 8C20 6.11467 20 5.172 20.5867 4.58667C21.1707 4 22.1133 4 24 4C25.8867 4 26.828 4 27.4133 4.58667C28 5.17067 28 6.11333 28 8C28 9.88667 28 10.828 27.4133 11.4133C26.8293 12 25.8867 12 24 12C22.1133 12 21.172 12 20.5867 11.4133C20 10.8293 20 9.88667 20 8Z" stroke="white" stroke-width="1.73333" stroke-linecap="round" stroke-linejoin="round"/>
</svg>
