<svg width="32" height="32" viewBox="0 0 32 32" fill="none" xmlns="http://www.w3.org/2000/svg">
<path d="M19.9993 10.6667L11.9993 18.6667M19.9993 18.6667H19.9873M12.0113 10.6667H11.9993M14.498 28.6827L11.7913 27.0761C11.1033 26.6681 10.7607 26.4641 10.378 26.4534C9.96735 26.4401 9.61802 26.6361 8.87535 27.0761C8.04335 27.5694 6.39002 28.9294 5.32068 28.2814C4.66602 27.8841 4.66602 26.8761 4.66602 24.8614V10.6667C4.66602 6.89608 4.66602 5.00941 5.83802 3.83875C7.00868 2.66675 8.89535 2.66675 12.666 2.66675H19.3327C23.1033 2.66675 24.99 2.66675 26.1607 3.83875C27.3327 5.00941 27.3327 6.89608 27.3327 10.6667V24.8614C27.3327 26.8761 27.3327 27.8841 26.6793 28.2814C25.6087 28.9294 23.9554 27.5694 23.1234 27.0761C22.4367 26.6681 22.0927 26.4641 21.7127 26.4534C21.2993 26.4401 20.95 26.6361 20.2087 27.0761L17.502 28.6827C16.7713 29.1161 16.406 29.3334 15.9993 29.3334C15.5927 29.3334 15.2273 29.1161 14.498 28.6827Z" stroke="#FF557E" stroke-width="1.73333" stroke-linecap="round" stroke-linejoin="round"/>
</svg>
