<svg width="22" height="22" viewBox="0 0 22 22" fill="none" xmlns="http://www.w3.org/2000/svg">
<path d="M10.003 1H9.006C5.724 1 4.084 1 2.92 1.814C2.48968 2.11498 2.11537 2.48896 1.814 2.919C1 4.08 1 5.72 1 9C1 12.28 1 13.919 1.814 15.081C2.116 15.511 2.49 15.885 2.92 16.186C4.084 17 5.724 17 9.006 17H13.009C16.291 17 17.932 17 19.095 16.186C19.525 15.886 19.9 15.511 20.201 15.081C20.816 14.204 20.966 13.094 21 12" stroke="#262626" stroke-width="1.3" stroke-linecap="round" stroke-linejoin="round"/>
<path d="M17 8.714V10M17 8.714C16.4564 8.71781 15.9201 8.58968 15.4369 8.34061C14.9537 8.09154 14.5382 7.72897 14.226 7.284M17 8.714C17.5436 8.71781 18.0799 8.58868 18.5631 8.33961C19.0463 8.09054 19.4618 7.72797 19.774 7.283M17 2.285C18.157 2.285 19.176 2.853 19.774 3.715M14.226 3.717C14.5382 3.27203 14.9537 2.90946 15.4369 2.66039C15.9201 2.41132 16.4564 2.28319 17 2.287V1M14.226 3.717L13 2.93M14.226 3.717C13.8617 4.24019 13.6663 4.86144 13.6663 5.499C13.6663 6.13656 13.8617 6.75881 14.226 7.282L13 8.07M21 2.929L19.774 3.717C20.1383 4.24019 20.3337 4.86144 20.3337 5.499C20.3337 6.13656 20.1383 6.75881 19.774 7.282L21 8.07M10 14H12M11 17V21M7 21H15" stroke="#262626" stroke-width="1.3" stroke-linecap="round" stroke-linejoin="round"/>
</svg>
