<svg width="24" height="24" viewBox="0 0 24 24" fill="none" xmlns="http://www.w3.org/2000/svg">
<path d="M22 14V10C22 6.229 22 4.343 20.828 3.172C19.656 2.001 17.771 2 14 2H12C8.229 2 6.343 2 5.172 3.172C4.001 4.344 4 6.229 4 10V14C4 17.771 4 19.657 5.172 20.828C6.344 21.999 8.229 22 12 22H14" stroke="#262626" stroke-width="1.3" stroke-linecap="round" stroke-linejoin="round"/>
<path d="M11.786 10H15.214C16.292 10 16.831 10 17.165 9.707C17.499 9.414 17.5 8.943 17.5 8C17.5 7.057 17.5 6.586 17.165 6.293C16.831 6 16.292 6 15.215 6H11.785C10.708 6 10.169 6 9.835 6.293C9.5 6.586 9.5 7.057 9.5 8C9.5 8.943 9.5 9.414 9.835 9.707C10.169 10 10.708 10 11.785 10M5 6H2M5 12H2M5 18H2" stroke="#262626" stroke-width="1.3" stroke-linecap="round" stroke-linejoin="round"/>
<path d="M19 15L19.2949 15.7966C19.6811 16.8411 19.8743 17.3634 20.2549 17.744C20.6366 18.1257 21.1589 18.3189 22.2034 18.7051L23 19L22.2034 19.2949C21.1589 19.6811 20.6366 19.8743 20.256 20.2549C19.8743 20.6366 19.6811 21.1589 19.2949 22.2034L19 23L18.7051 22.2034C18.3189 21.1589 18.1257 20.6366 17.7451 20.256C17.3634 19.8743 16.8411 19.6811 15.7966 19.2949L15 19L15.7966 18.7051C16.8411 18.3189 17.3634 18.1257 17.744 17.7451C18.1257 17.3634 18.3189 16.8411 18.7051 15.7966L19 15Z" stroke="#262626" stroke-width="1.3" stroke-linecap="round" stroke-linejoin="round"/>
</svg>
