<svg width="23" height="23" viewBox="0 0 23 23" fill="none" xmlns="http://www.w3.org/2000/svg">
<path d="M21 13V9C21 5.229 21 3.343 19.828 2.172C18.656 1.001 16.771 1 13 1H11C7.229 1 5.343 1 4.172 2.172C3.001 3.344 3 5.229 3 9V13C3 16.771 3 18.657 4.172 19.828C5.344 20.999 7.229 21 11 21H13" stroke="#FF557E" stroke-width="1.3" stroke-linecap="round" stroke-linejoin="round"/>
<path d="M10.786 9H14.214C15.292 9 15.831 9 16.165 8.707C16.499 8.414 16.5 7.943 16.5 7C16.5 6.057 16.5 5.586 16.165 5.293C15.831 5 15.292 5 14.215 5H10.785C9.708 5 9.169 5 8.835 5.293C8.5 5.586 8.5 6.057 8.5 7C8.5 7.943 8.5 8.414 8.835 8.707C9.169 9 9.708 9 10.785 9M4 5H1M4 11H1M4 17H1" stroke="#FF557E" stroke-width="1.3" stroke-linecap="round" stroke-linejoin="round"/>
<path d="M18 14L18.2949 14.7966C18.6811 15.8411 18.8743 16.3634 19.2549 16.744C19.6366 17.1257 20.1589 17.3189 21.2034 17.7051L22 18L21.2034 18.2949C20.1589 18.6811 19.6366 18.8743 19.256 19.2549C18.8743 19.6366 18.6811 20.1589 18.2949 21.2034L18 22L17.7051 21.2034C17.3189 20.1589 17.1257 19.6366 16.7451 19.256C16.3634 18.8743 15.8411 18.6811 14.7966 18.2949L14 18L14.7966 17.7051C15.8411 17.3189 16.3634 17.1257 16.744 16.7451C17.1257 16.3634 17.3189 15.8411 17.7051 14.7966L18 14Z" stroke="#FF557E" stroke-width="1.3" stroke-linecap="round" stroke-linejoin="round"/>
</svg>
