<svg width="24" height="24" viewBox="0 0 24 24" fill="none" xmlns="http://www.w3.org/2000/svg">
<path d="M7.491 14C3.001 11.6 3.001 10.4 3.001 10C3.001 9.6 3.001 8.4 7.491 6M7.491 14C3.001 16.4 3 17.2 3 18M7.491 14C11.981 11.6 11.981 10.4 11.981 10C11.981 9.6 11.981 8.4 7.491 6M7.491 6C11.981 3.6 11.981 2.8 11.981 2M7.491 6L5.308 4.744C3 3.281 3 2.641 3 2" stroke="#262626" stroke-width="1.3" stroke-linecap="round" stroke-linejoin="round"/>
<path d="M22 20.3125H13M22 20.3125C22 19.8681 20.3125 18.625 20.3125 18.625M22 20.3125C22 20.7569 20.3125 22 20.3125 22M13.5625 14.6875H22M14.6875 13C14.6875 13 13 14.2431 13 14.6875C13 15.1319 14.6875 16.375 14.6875 16.375" stroke="#262626" stroke-width="1.3" stroke-linecap="round" stroke-linejoin="round"/>
</svg>
