<svg width="40" height="40" viewBox="0 0 40 40" fill="none" xmlns="http://www.w3.org/2000/svg">
<path d="M33.3346 10.8409C34.5146 10.8626 35.173 10.9693 35.5546 11.4943C36.033 12.1526 35.8346 13.1409 35.4363 15.1193C34.0563 21.9693 32.9196 26.6693 25.4396 26.6693H13.3346L8.9663 5.86094C8.78605 5.13981 8.36993 4.49961 7.78409 4.04211C7.19824 3.58461 6.47629 3.33605 5.73297 3.33594H4.16797M15.0013 10.8359H28.3346M21.668 17.5026V4.16927M14.8013 26.6693H14.1163C11.843 26.6693 10.0013 28.5876 10.0013 30.9543C9.99931 31.0462 10.0155 31.1376 10.0488 31.2233C10.0822 31.309 10.1321 31.3873 10.1957 31.4537C10.2593 31.5201 10.3354 31.5733 10.4195 31.6103C10.5037 31.6473 10.5944 31.6673 10.6863 31.6693H29.168" stroke="white" stroke-opacity="0.9" stroke-width="1.3" stroke-linecap="round" stroke-linejoin="round"/>
<path d="M17.5 36.6719C18.8807 36.6719 20 35.5526 20 34.1719C20 32.7912 18.8807 31.6719 17.5 31.6719C16.1193 31.6719 15 32.7912 15 34.1719C15 35.5526 16.1193 36.6719 17.5 36.6719Z" stroke="white" stroke-opacity="0.9" stroke-width="1.3" stroke-linecap="round" stroke-linejoin="round"/>
<path d="M29.168 36.6719C30.5487 36.6719 31.668 35.5526 31.668 34.1719C31.668 32.7912 30.5487 31.6719 29.168 31.6719C27.7873 31.6719 26.668 32.7912 26.668 34.1719C26.668 35.5526 27.7873 36.6719 29.168 36.6719Z" stroke="white" stroke-opacity="0.9" stroke-width="1.3" stroke-linecap="round" stroke-linejoin="round"/>
</svg>
