<svg width="24" height="24" viewBox="0 0 24 24" fill="none" xmlns="http://www.w3.org/2000/svg">
    <path
        d="M11.003 2H10.006C6.724 2 5.084 2 3.92 2.814C3.48968 3.11498 3.11537 3.48896 2.814 3.919C2 5.08 2 6.72 2 10C2 13.28 2 14.919 2.814 16.081C3.116 16.511 3.49 16.885 3.92 17.186C5.084 18 6.724 18 10.006 18H14.009C17.291 18 18.932 18 20.095 17.186C20.525 16.886 20.9 16.511 21.201 16.081C21.816 15.204 21.966 14.094 22 13"
        stroke="currentColor" stroke-width="1.3" stroke-linecap="round" stroke-linejoin="round" />
    <path
        d="M18 9.714V11M18 9.714C17.4564 9.71781 16.9201 9.58968 16.4369 9.34061C15.9537 9.09154 15.5382 8.72897 15.226 8.284M18 9.714C18.5436 9.71781 19.0799 9.58868 19.5631 9.33961C20.0463 9.09054 20.4618 8.72797 20.774 8.283M18 3.285C19.157 3.285 20.176 3.853 20.774 4.715M15.226 4.717C15.5382 4.27203 15.9537 3.90946 16.4369 3.66039C16.9201 3.41132 17.4564 3.28319 18 3.287V2M15.226 4.717L14 3.93M15.226 4.717C14.8617 5.24019 14.6663 5.86144 14.6663 6.499C14.6663 7.13656 14.8617 7.75881 15.226 8.282L14 9.07M22 3.929L20.774 4.717C21.1383 5.24019 21.3337 5.86144 21.3337 6.499C21.3337 7.13656 21.1383 7.75881 20.774 8.282L22 9.07M11 15H13M12 18V22M8 22H16"
        stroke="currentColor" stroke-width="1.3" stroke-linecap="round" stroke-linejoin="round" />
</svg>