<svg width="24" height="24" viewBox="0 0 24 24" fill="none" xmlns="http://www.w3.org/2000/svg">
    <path d="M11 5H18M10 10L14.5 14.5M5 11V18" stroke="currentColor" stroke-width="1.3" stroke-linecap="round"
        stroke-linejoin="round" />
    <path
        d="M6.444 10.888C8.89835 10.888 10.888 8.89835 10.888 6.444C10.888 3.98965 8.89835 2 6.444 2C3.98965 2 2 3.98965 2 6.444C2 8.89835 3.98965 10.888 6.444 10.888Z"
        stroke="currentColor" stroke-width="1.3" stroke-linecap="round" stroke-linejoin="round" />
    <path
        d="M5 22C6.10457 22 7 21.1046 7 20C7 18.8954 6.10457 18 5 18C3.89543 18 3 18.8954 3 20C3 21.1046 3.89543 22 5 22Z"
        stroke="currentColor" stroke-width="1.3" stroke-linecap="round" stroke-linejoin="round" />
    <path
        d="M16 18C17.1046 18 18 17.1046 18 16C18 14.8954 17.1046 14 16 14C14.8954 14 14 14.8954 14 16C14 17.1046 14.8954 18 16 18Z"
        stroke="currentColor" stroke-width="1.3" stroke-linecap="round" stroke-linejoin="round" />
    <path
        d="M20 7C21.1046 7 22 6.10457 22 5C22 3.89543 21.1046 3 20 3C18.8954 3 18 3.89543 18 5C18 6.10457 18.8954 7 20 7Z"
        stroke="currentColor" stroke-width="1.3" stroke-linecap="round" stroke-linejoin="round" />
</svg>