<svg width="24" height="25" viewBox="0 0 24 25" fill="none" xmlns="http://www.w3.org/2000/svg">
<path d="M22 14.2578V10.2578C22 6.48681 22 4.60081 20.828 3.42981C19.656 2.25881 17.771 2.25781 14 2.25781H12C8.229 2.25781 6.343 2.25781 5.172 3.42981C4.001 4.60181 4 6.48681 4 10.2578V14.2578C4 18.0288 4 19.9148 5.172 21.0858C6.344 22.2568 8.229 22.2578 12 22.2578H14" stroke="#262626" stroke-width="1.3" stroke-linecap="round" stroke-linejoin="round"/>
<path d="M11.786 10.2578H15.214C16.292 10.2578 16.831 10.2578 17.165 9.96481C17.499 9.67181 17.5 9.20081 17.5 8.25781C17.5 7.31481 17.5 6.84381 17.165 6.55081C16.831 6.25781 16.292 6.25781 15.215 6.25781H11.785C10.708 6.25781 10.169 6.25781 9.835 6.55081C9.5 6.84381 9.5 7.31481 9.5 8.25781C9.5 9.20081 9.5 9.67181 9.835 9.96481C10.169 10.2578 10.708 10.2578 11.785 10.2578M5 6.25781H2M5 12.2578H2M5 18.2578H2" stroke="#262626" stroke-width="1.3" stroke-linecap="round" stroke-linejoin="round"/>
<path d="M19 15.2578L19.2949 16.0544C19.6811 17.099 19.8743 17.6212 20.2549 18.0018C20.6366 18.3835 21.1589 18.5767 22.2034 18.963L23 19.2578L22.2034 19.5527C21.1589 19.939 20.6366 20.1321 20.256 20.5127C19.8743 20.8944 19.6811 21.4167 19.2949 22.4612L19 23.2578L18.7051 22.4612C18.3189 21.4167 18.1257 20.8944 17.7451 20.5138C17.3634 20.1321 16.8411 19.939 15.7966 19.5527L15 19.2578L15.7966 18.963C16.8411 18.5767 17.3634 18.3835 17.744 18.003C18.1257 17.6212 18.3189 17.099 18.7051 16.0544L19 15.2578Z" stroke="#262626" stroke-width="1.3" stroke-linecap="round" stroke-linejoin="round"/>
</svg>
