<svg width="24" height="25" viewBox="0 0 24 25" fill="none" xmlns="http://www.w3.org/2000/svg">
<path d="M14 8.75574C14 9.28617 13.7893 9.79488 13.4142 10.17C13.0391 10.545 12.5304 10.7557 12 10.7557C11.4696 10.7557 10.9609 10.545 10.5858 10.17C10.2107 9.79488 10 9.28617 10 8.75574C10 8.2253 10.2107 7.7166 10.5858 7.34152C10.9609 6.96645 11.4696 6.75574 12 6.75574C12.5304 6.75574 13.0391 6.96645 13.4142 7.34152C13.7893 7.7166 14 8.2253 14 8.75574Z" stroke="#262626" stroke-width="1.3" stroke-linecap="round" stroke-linejoin="round"/>
<path d="M8.9877 12.9964C8.20146 13.4181 6.14087 14.2781 7.39585 15.354C8.00959 15.8797 8.69208 16.2557 9.55081 16.2557H14.4495C15.3082 16.2557 15.9913 15.8797 16.6038 15.354C17.8594 14.2781 15.7988 13.4175 15.0126 12.9964C14.0973 12.5112 13.0581 12.2557 12.0001 12.2557C10.9422 12.2557 9.90297 12.5112 8.9877 12.9964Z" stroke="#262626" stroke-width="1.3" stroke-linecap="round" stroke-linejoin="round"/>
<path d="M21 11.4387V8.53574C21 6.89574 21 6.07574 20.596 5.54074C20.192 5.00574 19.278 4.74674 17.451 4.22674C16.349 3.91024 15.2702 3.51832 14.222 3.05374C13.023 2.52174 12.424 2.25574 12 2.25574C11.576 2.25574 10.977 2.52174 9.778 3.05374C8.898 3.44374 7.798 3.87174 6.549 4.22674C4.722 4.74674 3.809 5.00674 3.404 5.54074C3 6.07574 3 6.89574 3 8.53574V11.4387C3 17.0637 8.063 20.4387 10.594 21.7747C11.201 22.0947 11.504 22.2557 12 22.2557C12.496 22.2557 12.799 22.0957 13.406 21.7757C15.937 20.4377 21 17.0637 21 11.4387Z" stroke="#262626" stroke-width="1.3" stroke-linecap="round" stroke-linejoin="round"/>
</svg>
