<svg width="24" height="25" viewBox="0 0 24 25" fill="none" xmlns="http://www.w3.org/2000/svg">
<path d="M11 5.25574H18M10 10.2557L14.5 14.7557M5 11.2557V18.2557" stroke="#262626" stroke-width="1.3" stroke-linecap="round" stroke-linejoin="round"/>
<path d="M6.444 11.1437C8.89835 11.1437 10.888 9.15409 10.888 6.69974C10.888 4.24538 8.89835 2.25574 6.444 2.25574C3.98965 2.25574 2 4.24538 2 6.69974C2 9.15409 3.98965 11.1437 6.444 11.1437Z" stroke="#262626" stroke-width="1.3" stroke-linecap="round" stroke-linejoin="round"/>
<path d="M5 22.2557C6.10457 22.2557 7 21.3603 7 20.2557C7 19.1512 6.10457 18.2557 5 18.2557C3.89543 18.2557 3 19.1512 3 20.2557C3 21.3603 3.89543 22.2557 5 22.2557Z" stroke="#262626" stroke-width="1.3" stroke-linecap="round" stroke-linejoin="round"/>
<path d="M16 18.2557C17.1046 18.2557 18 17.3603 18 16.2557C18 15.1512 17.1046 14.2557 16 14.2557C14.8954 14.2557 14 15.1512 14 16.2557C14 17.3603 14.8954 18.2557 16 18.2557Z" stroke="#262626" stroke-width="1.3" stroke-linecap="round" stroke-linejoin="round"/>
<path d="M20 7.25574C21.1046 7.25574 22 6.36031 22 5.25574C22 4.15117 21.1046 3.25574 20 3.25574C18.8954 3.25574 18 4.15117 18 5.25574C18 6.36031 18.8954 7.25574 20 7.25574Z" stroke="#262626" stroke-width="1.3" stroke-linecap="round" stroke-linejoin="round"/>
</svg>
