<svg width="24" height="25" viewBox="0 0 24 25" fill="none" xmlns="http://www.w3.org/2000/svg">
<path d="M11.003 2.25574H10.006C6.724 2.25574 5.084 2.25574 3.92 3.06974C3.48968 3.37072 3.11537 3.74469 2.814 4.17474C2 5.33574 2 6.97574 2 10.2557C2 13.5357 2 15.1747 2.814 16.3367C3.116 16.7667 3.49 17.1407 3.92 17.4417C5.084 18.2557 6.724 18.2557 10.006 18.2557H14.009C17.291 18.2557 18.932 18.2557 20.095 17.4417C20.525 17.1417 20.9 16.7667 21.201 16.3367C21.816 15.4597 21.966 14.3497 22 13.2557" stroke="#262626" stroke-width="1.3" stroke-linecap="round" stroke-linejoin="round"/>
<path d="M18 9.96974V11.2557M18 9.96974C17.4564 9.97355 16.9201 9.84542 16.4369 9.59635C15.9537 9.34728 15.5382 8.98471 15.226 8.53974M18 9.96974C18.5436 9.97355 19.0799 9.84442 19.5631 9.59535C20.0463 9.34628 20.4618 8.98371 20.774 8.53874M18 3.54074C19.157 3.54074 20.176 4.10874 20.774 4.97074M15.226 4.97274C15.5382 4.52777 15.9537 4.16519 16.4369 3.91613C16.9201 3.66706 17.4564 3.53893 18 3.54274V2.25574M15.226 4.97274L14 4.18574M15.226 4.97274C14.8617 5.49593 14.6663 6.11718 14.6663 6.75474C14.6663 7.39229 14.8617 8.01455 15.226 8.53774L14 9.32574M22 4.18474L20.774 4.97274C21.1383 5.49593 21.3337 6.11718 21.3337 6.75474C21.3337 7.39229 21.1383 8.01455 20.774 8.53774L22 9.32574M11 15.2557H13M12 18.2557V22.2557M8 22.2557H16" stroke="#262626" stroke-width="1.3" stroke-linecap="round" stroke-linejoin="round"/>
</svg>
