<svg width="24" height="25" viewBox="0 0 24 25" fill="none" xmlns="http://www.w3.org/2000/svg">
<path d="M7.491 14.2557C3.001 11.8557 3.001 10.6557 3.001 10.2557C3.001 9.85574 3.001 8.65574 7.491 6.25574M7.491 14.2557C3.001 16.6557 3 17.4557 3 18.2557M7.491 14.2557C11.981 11.8557 11.981 10.6557 11.981 10.2557C11.981 9.85574 11.981 8.65574 7.491 6.25574M7.491 6.25574C11.981 3.85574 11.981 3.05574 11.981 2.25574M7.491 6.25574L5.308 4.99974C3 3.53674 3 2.89674 3 2.25574" stroke="#262626" stroke-width="1.3" stroke-linecap="round" stroke-linejoin="round"/>
<path d="M22 20.5682H13M22 20.5682C22 20.1239 20.3125 18.8807 20.3125 18.8807M22 20.5682C22 21.0126 20.3125 22.2557 20.3125 22.2557M13.5625 14.9432H22M14.6875 13.2557C14.6875 13.2557 13 14.4989 13 14.9432C13 15.3876 14.6875 16.6307 14.6875 16.6307" stroke="#262626" stroke-width="1.3" stroke-linecap="round" stroke-linejoin="round"/>
</svg>
