<svg width="16" height="16" viewBox="0 0 16 16" fill="none" xmlns="http://www.w3.org/2000/svg">
<path d="M14.6693 5.4434V5.49206C14.6693 6.0654 14.6693 6.35273 14.5313 6.5874C14.3933 6.82206 14.1419 6.9614 13.6406 7.24073L13.1119 7.53406C13.4759 6.30206 13.5979 4.97806 13.6426 3.84606L13.6493 3.69873L13.6506 3.66406C14.0846 3.81473 14.3286 3.9274 14.4806 4.13806C14.6693 4.40006 14.6693 4.74806 14.6693 5.4434ZM1.33594 5.4434V5.49206C1.33594 6.0654 1.33594 6.35273 1.47394 6.5874C1.61194 6.82206 1.86327 6.9614 2.3646 7.24073L2.89394 7.53406C2.52927 6.30206 2.40727 4.97806 2.3626 3.84606L2.35594 3.69873L2.35527 3.66406C1.9206 3.81473 1.6766 3.9274 1.5246 4.13806C1.33594 4.40006 1.33594 4.74873 1.33594 5.4434Z" fill="white"/>
<path fill-rule="evenodd" clip-rule="evenodd" d="M8.00128 1.33609C9.19062 1.33609 10.17 1.44076 10.9193 1.56742C11.6786 1.69542 12.058 1.75942 12.3753 2.15009C12.6926 2.54076 12.6753 2.96276 12.642 3.80676C12.5273 6.70609 11.902 10.3268 8.50128 10.6468V13.0028H9.45462C9.60868 13.0028 9.75795 13.0563 9.87706 13.154C9.99617 13.2517 10.0778 13.3877 10.108 13.5388L10.2346 14.1694H12.0013C12.1339 14.1694 12.2611 14.2221 12.3548 14.3159C12.4486 14.4096 12.5013 14.5368 12.5013 14.6694C12.5013 14.802 12.4486 14.9292 12.3548 15.023C12.2611 15.1167 12.1339 15.1694 12.0013 15.1694H4.00128C3.86868 15.1694 3.7415 15.1167 3.64773 15.023C3.55396 14.9292 3.50128 14.802 3.50128 14.6694C3.50128 14.5368 3.55396 14.4096 3.64773 14.3159C3.7415 14.2221 3.86868 14.1694 4.00128 14.1694H5.76795L5.89462 13.5388C5.92481 13.3877 6.0064 13.2517 6.12551 13.154C6.24461 13.0563 6.39389 13.0028 6.54795 13.0028H7.50128V10.6468C4.10128 10.3268 3.47595 6.70542 3.36128 3.80676C3.32728 2.96276 3.31062 2.54009 3.62795 2.15009C3.94462 1.75942 4.32395 1.69542 5.08328 1.56742C6.04784 1.40942 7.02388 1.33204 8.00128 1.33609ZM8.63595 4.13542L8.57062 4.01809C8.31728 3.56276 8.19062 3.33609 8.00128 3.33609C7.81195 3.33609 7.68528 3.56276 7.43195 4.01809L7.36662 4.13542C7.29462 4.26476 7.25862 4.32876 7.20262 4.37142C7.14595 4.41409 7.07595 4.43009 6.93595 4.46142L6.80928 4.49076C6.31728 4.60209 6.07128 4.65742 6.01262 4.84542C5.95395 5.03342 6.12195 5.23009 6.45728 5.62209L6.54395 5.72342C6.63928 5.83476 6.68728 5.89009 6.70862 5.95942C6.72995 6.02876 6.72262 6.10276 6.70862 6.25142L6.69528 6.38676C6.64462 6.91009 6.61928 7.17209 6.77195 7.28809C6.92528 7.40409 7.15595 7.29809 7.61662 7.08609L7.73528 7.03142C7.86662 6.97142 7.93195 6.94142 8.00128 6.94142C8.07062 6.94142 8.13595 6.97142 8.26728 7.03142L8.38595 7.08609C8.84662 7.29876 9.07728 7.40409 9.23062 7.28809C9.38395 7.17209 9.35795 6.91009 9.30728 6.38676L9.29395 6.25142C9.27995 6.10276 9.27262 6.02876 9.29395 5.95942C9.31528 5.89009 9.36328 5.83476 9.45862 5.72342L9.54528 5.62209C9.88062 5.23009 10.0486 5.03409 9.98995 4.84542C9.93128 4.65742 9.68528 4.60209 9.19328 4.49076L9.06662 4.46142C8.92662 4.43009 8.85662 4.41476 8.79995 4.37142C8.74395 4.32876 8.70795 4.26476 8.63595 4.13542Z" fill="white"/>
</svg>
