<svg width="24" height="25" viewBox="0 0 24 25" fill="none" xmlns="http://www.w3.org/2000/svg">
<path d="M12 22.2557C17.5228 22.2557 22 17.7786 22 12.2557C22 6.73289 17.5228 2.25574 12 2.25574C6.47715 2.25574 2 6.73289 2 12.2557C2 17.7786 6.47715 22.2557 12 22.2557Z" stroke="#262626" stroke-width="1.3" stroke-linecap="round" stroke-linejoin="round"/>
<path d="M12 16.2557C14.2091 16.2557 16 14.4649 16 12.2557C16 10.0466 14.2091 8.25574 12 8.25574C9.79086 8.25574 8 10.0466 8 12.2557C8 14.4649 9.79086 16.2557 12 16.2557Z" stroke="#262626" stroke-width="1.3" stroke-linecap="round" stroke-linejoin="round"/>
<path d="M4.92969 5.18542L9.16969 9.42543" stroke="#262626" stroke-width="1.3" stroke-linecap="round" stroke-linejoin="round"/>
<path d="M14.8281 15.0839L19.0681 19.3239" stroke="#262626" stroke-width="1.3" stroke-linecap="round" stroke-linejoin="round"/>
<path d="M14.8281 9.42543L19.0681 5.18542" stroke="#262626" stroke-width="1.3" stroke-linecap="round" stroke-linejoin="round"/>
<path d="M14.8281 9.42636L18.3581 5.89636" stroke="#262626" stroke-width="1.3" stroke-linecap="round" stroke-linejoin="round"/>
<path d="M4.92969 19.3239L9.16969 15.0839" stroke="#262626" stroke-width="1.3" stroke-linecap="round" stroke-linejoin="round"/>
</svg>
