<svg width="20" height="20" viewBox="0 0 20 20" fill="none" xmlns="http://www.w3.org/2000/svg">
    <path
        d="M3.33203 6.25C3.33203 5.1895 3.33203 4.65925 3.6987 4.33C4.0637 4 4.65286 4 5.83203 4C7.0112 4 7.59953 4 7.96536 4.33C8.33203 4.6585 8.33203 5.18875 8.33203 6.25V13.75C8.33203 14.8105 8.33203 15.3407 7.96536 15.67C7.60036 16 7.0112 16 5.83203 16C4.65286 16 4.06453 16 3.6987 15.67C3.33203 15.3415 3.33203 14.8112 3.33203 13.75V6.25ZM11.6654 6.25C11.6654 5.1895 11.6654 4.65925 12.032 4.33C12.397 4 12.9862 4 14.1654 4C15.3445 4 15.9329 4 16.2987 4.33C16.6654 4.6585 16.6654 5.18875 16.6654 6.25V13.75C16.6654 14.8105 16.6654 15.3407 16.2987 15.67C15.9329 16 15.3437 16 14.1654 16C12.987 16 12.3979 16 12.032 15.67C11.6654 15.3415 11.6654 14.8112 11.6654 13.75V6.25Z"
        stroke="currentColor" stroke-linecap="round" stroke-linejoin="round" />
</svg>