<svg width="24" height="25" viewBox="0 0 24 25" fill="none" xmlns="http://www.w3.org/2000/svg">
<path d="M2.5 12.2557C2.5 7.77774 2.5 5.53774 3.891 4.14674C5.282 2.75574 7.521 2.75574 12 2.75574C16.478 2.75574 18.718 2.75574 20.109 4.14674C21.5 5.53774 21.5 7.77674 21.5 12.2557C21.5 16.7337 21.5 18.9737 20.109 20.3647C18.718 21.7557 16.479 21.7557 12 21.7557C7.522 21.7557 5.282 21.7557 3.891 20.3647C2.5 18.9737 2.5 16.7347 2.5 12.2557Z" stroke="#262626" stroke-width="1.3" stroke-linecap="round" stroke-linejoin="round"/>
<path d="M2.5 14.7557H3.039C3.511 14.7557 3.747 14.7557 3.953 14.6567C4.158 14.5587 4.305 14.3737 4.6 14.0047L6 12.2557L7.5 14.7557L9 11.2557L11.5 16.2557L15 9.25574L17 12.7557L18.5 11.2557L19.945 13.4237C20.197 13.8017 20.323 13.9907 20.507 14.1047C20.5437 14.1274 20.5817 14.1477 20.621 14.1657C20.819 14.2557 21.046 14.2557 21.5 14.2557M15 2.75574V5.75574M15 21.7557V14.7557" stroke="#262626" stroke-width="1.3" stroke-linecap="round" stroke-linejoin="round"/>
<path d="M15 10.2557C15.5523 10.2557 16 9.80802 16 9.25574C16 8.70345 15.5523 8.25574 15 8.25574C14.4477 8.25574 14 8.70345 14 9.25574C14 9.80802 14.4477 10.2557 15 10.2557Z" stroke="#262626" stroke-width="1.3" stroke-linecap="round" stroke-linejoin="round"/>
</svg>
