<svg width="24" height="25" viewBox="0 0 24 25" fill="none" xmlns="http://www.w3.org/2000/svg">
    <path
        d="M5.45276 12.2041L7 17.8417C7.86386 19.6296 8.94832 20.0967 11.6433 20.2578C13.7859 20.203 15.0293 19.9389 16.0906 18.9757C16.8141 18.3185 17.1411 17.3279 17.3 16.3421L17.8307 13.0094M21.3205 9.78795V17.8417M2.10414 8.87465C4.55227 6.7533 6.73352 5.6145 11.258 4.36134C11.7684 4.22062 12.3054 4.2234 12.8145 4.36939C16.8191 5.51946 18.9819 6.54068 21.8789 8.81184C22.0023 8.90848 22.0393 9.08888 21.9529 9.22258C21.0073 10.6755 18.8955 11.8529 13.7154 13.9501C12.6364 14.3836 11.4407 14.3767 10.3664 13.9308C4.84999 11.6435 2.31394 10.4194 2.00542 9.14848C1.99539 9.09776 1.99934 9.04511 2.01682 8.99664C2.03429 8.94818 2.06457 8.90588 2.10414 8.87465Z"
        stroke="#262626" stroke-width="1.3" fill="currentColor" stroke-linecap="round" stroke-linejoin="round" />

</svg>