<svg width="24" height="24" viewBox="0 0 24 24" fill="none" xmlns="http://www.w3.org/2000/svg">
    <path
        d="M5.45276 11.9463L7 17.5839C7.86386 19.3718 8.94832 19.8389 11.6433 20C13.7859 19.9452 15.0293 19.6811 16.0906 18.7178C16.8141 18.0607 17.1411 17.07 17.3 16.0843L17.8307 12.7516M21.3205 9.53014V17.5839M2.10414 8.61684C4.55227 6.49549 6.73352 5.35669 11.258 4.10352C11.7684 3.96281 12.3054 3.96559 12.8145 4.11158C16.8191 5.26165 18.9819 6.28287 21.8789 8.55402C22.0023 8.65067 22.0393 8.83107 21.9529 8.96476C21.0073 10.4177 18.8955 11.5951 13.7154 13.6923C12.6364 14.1258 11.4407 14.1189 10.3664 13.673C4.84999 11.3857 2.31394 10.1615 2.00542 8.89067C1.99539 8.83995 1.99934 8.7873 2.01682 8.73883C2.03429 8.69036 2.06457 8.64806 2.10414 8.61684Z"
        stroke="currentColor" stroke-width="1.3" fill="" stroke-linecap="round" stroke-linejoin="round" />

</svg>