<svg width="24" height="24" viewBox="0 0 24 24" fill="none" xmlns="http://www.w3.org/2000/svg">
    <path
        d="M14 8.5C14 9.03043 13.7893 9.53914 13.4142 9.91421C13.0391 10.2893 12.5304 10.5 12 10.5C11.4696 10.5 10.9609 10.2893 10.5858 9.91421C10.2107 9.53914 10 9.03043 10 8.5C10 7.96957 10.2107 7.46086 10.5858 7.08579C10.9609 6.71071 11.4696 6.5 12 6.5C12.5304 6.5 13.0391 6.71071 13.4142 7.08579C13.7893 7.46086 14 7.96957 14 8.5Z"
        stroke="currentColor" stroke-width="1.3" stroke-linecap="round" stroke-linejoin="round" />
    <path
        d="M8.9877 12.7407C8.20146 13.1624 6.14087 14.0223 7.39585 15.0983C8.00959 15.624 8.69208 16 9.55081 16H14.4495C15.3082 16 15.9913 15.624 16.6038 15.0983C17.8594 14.0223 15.7988 13.1618 15.0126 12.7407C14.0973 12.2555 13.0581 12 12.0001 12C10.9422 12 9.90297 12.2555 8.9877 12.7407Z"
        stroke="currentColor" stroke-width="1.3" stroke-linecap="round" stroke-linejoin="round" />
    <path
        d="M21 11.183V8.28C21 6.64 21 5.82 20.596 5.285C20.192 4.75 19.278 4.491 17.451 3.971C16.349 3.6545 15.2702 3.26258 14.222 2.798C13.023 2.266 12.424 2 12 2C11.576 2 10.977 2.266 9.778 2.798C8.898 3.188 7.798 3.616 6.549 3.971C4.722 4.491 3.809 4.751 3.404 5.285C3 5.82 3 6.64 3 8.28V11.183C3 16.808 8.063 20.183 10.594 21.519C11.201 21.839 11.504 22 12 22C12.496 22 12.799 21.84 13.406 21.52C15.937 20.182 21 16.808 21 11.183Z"
        stroke="currentColor" stroke-width="1.3" stroke-linecap="round" stroke-linejoin="round" />
</svg>