<svg width="24" height="24" viewBox="0 0 24 24" fill="none" xmlns="http://www.w3.org/2000/svg">
<path d="M10 12.333C10 12.023 10 11.868 10.034 11.741C10.0794 11.5715 10.1687 11.4169 10.2928 11.2928C10.4169 11.1687 10.5715 11.0794 10.741 11.034C10.868 11 11.023 11 11.333 11H12.667C12.977 11 13.132 11 13.259 11.034C13.4285 11.0794 13.5831 11.1687 13.7072 11.2928C13.8313 11.4169 13.9206 11.5715 13.966 11.741C14 11.868 14 12.023 14 12.333V13C14 13.5304 13.7893 14.0391 13.4142 14.4142C13.0391 14.7893 12.5304 15 12 15C11.4696 15 10.9609 14.7893 10.5858 14.4142C10.2107 14.0391 10 13.5304 10 13V12.333Z"   stroke="currentColor" stroke-width="1.3" stroke-linecap="round" stroke-linejoin="round"/>
<path d="M13.8023 13C14.1133 12.91 14.4673 12.8 14.8803 12.673L19.0513 11.387C20.5363 10.929 21.2623 10.131 21.4213 8.75C21.4913 8.132 21.5263 7.823 21.4773 7.57C21.3353 6.849 20.7293 6.264 19.9213 6.068C19.6383 6 19.2833 6 18.5723 6H5.42825C4.71725 6 4.36225 6 4.07825 6.068C3.27125 6.264 2.66525 6.848 2.52325 7.57C2.47325 7.823 2.50925 8.132 2.58025 8.75C2.73825 10.131 3.46425 10.929 4.94925 11.387L9.12025 12.673C9.47873 12.7848 9.83807 12.8938 10.1983 13"   stroke="currentColor" stroke-width="1.3" stroke-linecap="round" stroke-linejoin="round"/>
<path d="M3.46284 11L3.26684 13.172C2.91484 17.066 2.73884 19.013 3.86684 20.257C4.99484 21.501 6.93984 21.5 10.8238 21.5H13.1758C17.0608 21.5 19.0038 21.5 20.1328 20.257C21.2618 19.014 21.0848 17.067 20.7328 13.172L20.5368 11M15.4998 5.5L15.4228 5.235C15.0378 3.915 14.8448 3.255 14.3868 2.878C13.9288 2.501 13.3198 2.5 12.1018 2.5H11.8978C10.6798 2.5 10.0708 2.5 9.61284 2.878C9.15484 3.255 8.96284 3.915 8.57684 5.235L8.49984 5.5"   stroke="currentColor" stroke-width="1.3" stroke-linecap="round" stroke-linejoin="round"/>
</svg>
