<svg width="20" height="20" viewBox="0 0 20 20" fill="none" xmlns="http://www.w3.org/2000/svg">
<path d="M15.4994 0.833336V2.66667M4.49935 0.833336V2.66667M9.99568 10.9167H10.003M9.99568 14.5833H10.003M13.6578 10.9167H13.666M6.33268 10.9167H6.34093M6.33268 14.5833H6.34093M2.20768 6.33334H17.791M1.74935 6.33334H18.2494M1.29102 10.2228C1.29102 6.22884 1.29102 4.23142 2.43868 2.99025C3.58635 1.75 5.43435 1.75 9.12852 1.75H10.8702C14.5644 1.75 16.4123 1.75 17.56 2.99117C18.7077 4.23142 18.7077 6.22884 18.7077 10.2237V10.6939C18.7077 14.6878 18.7077 16.6853 17.56 17.9264C16.4123 19.1667 14.5644 19.1667 10.8702 19.1667H9.12852C5.43435 19.1667 3.58635 19.1667 2.43868 17.9255C1.29102 16.6853 1.29102 14.6878 1.29102 10.693V10.2228Z" stroke="#262626" stroke-width="1.3" stroke-linecap="round" stroke-linejoin="round"/>
</svg>
