<svg width="24" height="25" viewBox="0 0 24 25" fill="none" xmlns="http://www.w3.org/2000/svg">
<path d="M11.003 2.25781H10.006C6.724 2.25781 5.084 2.25781 3.92 3.07181C3.48968 3.37279 3.11537 3.74677 2.814 4.17681C2 5.33781 2 6.97781 2 10.2578C2 13.5378 2 15.1768 2.814 16.3388C3.116 16.7688 3.49 17.1428 3.92 17.4438C5.084 18.2578 6.724 18.2578 10.006 18.2578H14.009C17.291 18.2578 18.932 18.2578 20.095 17.4438C20.525 17.1438 20.9 16.7688 21.201 16.3388C21.816 15.4618 21.966 14.3518 22 13.2578" stroke="#737373" stroke-width="1.3" stroke-linecap="round" stroke-linejoin="round"/>
<path d="M18 9.97181V11.2578M18 9.97181C17.4564 9.97562 16.9201 9.84749 16.4369 9.59842C15.9537 9.34935 15.5382 8.98678 15.226 8.54181M18 9.97181C18.5436 9.97562 19.0799 9.84649 19.5631 9.59742C20.0463 9.34836 20.4618 8.98578 20.774 8.54081M18 3.54281C19.157 3.54281 20.176 4.11081 20.774 4.97281M15.226 4.97481C15.5382 4.52984 15.9537 4.16727 16.4369 3.9182C16.9201 3.66913 17.4564 3.541 18 3.54481V2.25781M15.226 4.97481L14 4.18781M15.226 4.97481C14.8617 5.498 14.6663 6.11926 14.6663 6.75681C14.6663 7.39437 14.8617 8.01662 15.226 8.53981L14 9.32781M22 4.18681L20.774 4.97481C21.1383 5.498 21.3337 6.11926 21.3337 6.75681C21.3337 7.39437 21.1383 8.01662 20.774 8.53981L22 9.32781M11 15.2578H13M12 18.2578V22.2578M8 22.2578H16" stroke="#737373" stroke-width="1.3" stroke-linecap="round" stroke-linejoin="round"/>
</svg>
