<svg width="24" height="25" viewBox="0 0 24 25" fill="none" xmlns="http://www.w3.org/2000/svg">
<path d="M11 5.25781H18M10 10.2578L14.5 14.7578M5 11.2578V18.2578" stroke="#A7A8BE" stroke-width="1.3" stroke-linecap="round" stroke-linejoin="round"/>
<path d="M6.444 11.1458C8.89835 11.1458 10.888 9.15617 10.888 6.70181C10.888 4.24746 8.89835 2.25781 6.444 2.25781C3.98965 2.25781 2 4.24746 2 6.70181C2 9.15617 3.98965 11.1458 6.444 11.1458Z" stroke="#A7A8BE" stroke-width="1.3" stroke-linecap="round" stroke-linejoin="round"/>
<path d="M5 22.2578C6.10457 22.2578 7 21.3624 7 20.2578C7 19.1532 6.10457 18.2578 5 18.2578C3.89543 18.2578 3 19.1532 3 20.2578C3 21.3624 3.89543 22.2578 5 22.2578Z" stroke="#A7A8BE" stroke-width="1.3" stroke-linecap="round" stroke-linejoin="round"/>
<path d="M16 18.2578C17.1046 18.2578 18 17.3624 18 16.2578C18 15.1532 17.1046 14.2578 16 14.2578C14.8954 14.2578 14 15.1532 14 16.2578C14 17.3624 14.8954 18.2578 16 18.2578Z" stroke="#A7A8BE" stroke-width="1.3" stroke-linecap="round" stroke-linejoin="round"/>
<path d="M20 7.25781C21.1046 7.25781 22 6.36238 22 5.25781C22 4.15324 21.1046 3.25781 20 3.25781C18.8954 3.25781 18 4.15324 18 5.25781C18 6.36238 18.8954 7.25781 20 7.25781Z" stroke="#A7A8BE" stroke-width="1.3" stroke-linecap="round" stroke-linejoin="round"/>
</svg>
