<svg width="64" height="64" viewBox="0 0 64 64" fill="none" xmlns="http://www.w3.org/2000/svg">
<path d="M48.0003 39.9948V58.6615M57.3336 49.3281H38.6669M18.6669 42.6615H29.3336M18.6669 29.3281H40.0003M17.3336 9.32812C13.1842 9.45346 10.7123 9.91479 9.00025 11.6268C6.65625 13.9735 6.65625 17.7468 6.65625 25.2961V42.6455C6.65625 50.1975 6.65625 53.9708 9.00025 56.3175C11.3416 58.6615 15.1149 58.6615 22.6563 58.6615H30.6669M41.3122 9.32812C45.4616 9.45346 47.9363 9.91479 49.6456 11.6268C51.9923 13.9735 51.9922 17.7468 51.9922 25.2961V31.9948" stroke="#393C60" stroke-width="1.5" stroke-linecap="round" stroke-linejoin="round"/>
<path d="M17.3242 9.99479C17.3242 7.41879 19.4149 5.32812 21.9909 5.32812H36.6576C37.8952 5.32813 39.0822 5.81979 39.9574 6.69496C40.8326 7.57013 41.3242 8.75711 41.3242 9.99479C41.3242 11.2325 40.8326 12.4195 39.9574 13.2946C39.0822 14.1698 37.8952 14.6615 36.6576 14.6615H21.9909C20.7532 14.6615 19.5662 14.1698 18.6911 13.2946C17.8159 12.4195 17.3242 11.2325 17.3242 9.99479Z" stroke="#393C60" stroke-width="1.5" stroke-linecap="round" stroke-linejoin="round"/>
</svg>
