<svg width="64" height="65" viewBox="0 0 64 65" fill="none" xmlns="http://www.w3.org/2000/svg">
<path d="M5.33398 6.38776L58.6673 59.1718M17.4993 7.20909C22.8487 5.60376 38.1767 5.28109 47.2647 6.89443C49.4647 7.28643 51.5847 8.70509 52.742 10.5878C54.678 13.7424 54.574 17.4144 54.574 21.0998L54.254 43.6464M10.6673 11.6278C8.98198 17.6731 9.20865 28.7691 9.31798 45.1478C9.33398 47.2544 9.43265 49.3878 10.0673 51.4011C11.0513 54.5211 12.6887 56.4144 16.286 57.9344C17.8193 58.5851 19.502 58.7984 21.174 58.7984H31.9553C42.078 58.5531 46.1633 57.4971 50.638 51.6571M27.966 58.7984C34.3153 55.5798 37.5873 55.1318 36.7553 47.0358C36.5953 44.9398 37.7953 42.4358 39.9393 41.7638M54.414 32.6224C53.766 36.4518 53.3313 37.8758 50.7473 40.0918" stroke="#D9D9D9" stroke-width="1.5" stroke-linecap="round" stroke-linejoin="round"/>
</svg>
