<svg width="24" height="25" viewBox="0 0 24 25" fill="none" xmlns="http://www.w3.org/2000/svg">
<path d="M10 12.5887C10 12.2787 10 12.1237 10.034 11.9967C10.0794 11.8272 10.1687 11.6726 10.2928 11.5485C10.4169 11.4244 10.5715 11.3352 10.741 11.2897C10.868 11.2557 11.023 11.2557 11.333 11.2557H12.667C12.977 11.2557 13.132 11.2557 13.259 11.2897C13.4285 11.3352 13.5831 11.4244 13.7072 11.5485C13.8313 11.6726 13.9206 11.8272 13.966 11.9967C14 12.1237 14 12.2787 14 12.5887V13.2557C14 13.7862 13.7893 14.2949 13.4142 14.67C13.0391 15.045 12.5304 15.2557 12 15.2557C11.4696 15.2557 10.9609 15.045 10.5858 14.67C10.2107 14.2949 10 13.7862 10 13.2557V12.5887Z" stroke="#262626" stroke-width="1.3" stroke-linecap="round" stroke-linejoin="round"/>
<path d="M13.8023 13.2557C14.1133 13.1657 14.4673 13.0557 14.8803 12.9287L19.0513 11.6427C20.5363 11.1847 21.2623 10.3867 21.4213 9.00574C21.4913 8.38774 21.5263 8.07874 21.4773 7.82574C21.3353 7.10474 20.7293 6.51974 19.9213 6.32374C19.6383 6.25574 19.2833 6.25574 18.5723 6.25574H5.42825C4.71725 6.25574 4.36225 6.25574 4.07825 6.32374C3.27125 6.51974 2.66525 7.10374 2.52325 7.82574C2.47325 8.07874 2.50925 8.38774 2.58025 9.00574C2.73825 10.3867 3.46425 11.1847 4.94925 11.6427L9.12025 12.9287C9.47873 13.0405 9.83807 13.1496 10.1983 13.2557" stroke="#262626" stroke-width="1.3" stroke-linecap="round" stroke-linejoin="round"/>
<path d="M3.46284 11.2557L3.26684 13.4277C2.91484 17.3217 2.73884 19.2687 3.86684 20.5127C4.99484 21.7567 6.93984 21.7557 10.8238 21.7557H13.1758C17.0608 21.7557 19.0038 21.7557 20.1328 20.5127C21.2618 19.2697 21.0848 17.3227 20.7328 13.4277L20.5368 11.2557M15.4998 5.75574L15.4228 5.49074C15.0378 4.17074 14.8448 3.51074 14.3868 3.13374C13.9288 2.75674 13.3198 2.75574 12.1018 2.75574H11.8978C10.6798 2.75574 10.0708 2.75574 9.61284 3.13374C9.15484 3.51074 8.96284 4.17074 8.57684 5.49074L8.49984 5.75574" stroke="#262626" stroke-width="1.3" stroke-linecap="round" stroke-linejoin="round"/>
</svg>
