<svg width="24" height="25" viewBox="0 0 24 25" fill="none" xmlns="http://www.w3.org/2000/svg">
<path d="M5.45276 12.202L7 17.8396C7.86386 19.6275 8.94832 20.0947 11.6433 20.2557C13.7859 20.201 15.0293 19.9368 16.0906 18.9736C16.8141 18.3164 17.1411 17.3258 17.3 16.34L17.8307 13.0074M21.3205 9.78587V17.8396M2.10414 8.87258C4.55227 6.75122 6.73352 5.61242 11.258 4.35926C11.7684 4.21855 12.3054 4.22133 12.8145 4.36732C16.8191 5.51739 18.9819 6.5386 21.8789 8.80976C22.0023 8.9064 22.0393 9.08681 21.9529 9.2205C21.0073 10.6734 18.8955 11.8509 13.7154 13.948C12.6364 14.3815 11.4407 14.3746 10.3664 13.9287C4.84999 11.6415 2.31394 10.4173 2.00542 9.14641C1.99539 9.09569 1.99934 9.04304 2.01682 8.99457C2.03429 8.9461 2.06457 8.9038 2.10414 8.87258Z" stroke="#262626" stroke-width="1.3" stroke-linecap="round" stroke-linejoin="round"/>
</svg>
