<svg width="24" height="25" viewBox="0 0 24 25" fill="none" xmlns="http://www.w3.org/2000/svg">
<path d="M7.491 14.2578C3.001 11.8578 3.001 10.6578 3.001 10.2578C3.001 9.85781 3.001 8.65781 7.491 6.25781M7.491 14.2578C3.001 16.6578 3 17.4578 3 18.2578M7.491 14.2578C11.981 11.8578 11.981 10.6578 11.981 10.2578C11.981 9.85781 11.981 8.65781 7.491 6.25781M7.491 6.25781C11.981 3.85781 11.981 3.05781 11.981 2.25781M7.491 6.25781L5.308 5.00181C3 3.53881 3 2.89881 3 2.25781" stroke="#737373" stroke-width="1.3" stroke-linecap="round" stroke-linejoin="round"/>
<path d="M22 20.5703H13M22 20.5703C22 20.1259 20.3125 18.8828 20.3125 18.8828M22 20.5703C22 21.0147 20.3125 22.2578 20.3125 22.2578M13.5625 14.9453H22M14.6875 13.2578C14.6875 13.2578 13 14.5009 13 14.9453C13 15.3897 14.6875 16.6328 14.6875 16.6328" stroke="#737373" stroke-width="1.3" stroke-linecap="round" stroke-linejoin="round"/>
</svg>
