<svg width="22" height="22" viewBox="0 0 22 22" fill="none" xmlns="http://www.w3.org/2000/svg">
<path d="M17.325 7.32873C17.3861 7.03173 17.4167 6.72617 17.4167 6.41206C17.416 5.77171 17.2812 5.1386 17.0209 4.55354C16.7606 3.96849 16.3806 3.44447 15.9054 3.01526C15.4301 2.58606 14.8703 2.2612 14.2618 2.06163C13.6533 1.86205 13.0098 1.79219 12.3727 1.85654C11.7356 1.9209 11.1191 2.11804 10.5628 2.43526C10.0065 2.75249 9.52293 3.18275 9.14314 3.69832C8.76335 4.21388 8.49581 4.80331 8.35777 5.42861C8.21972 6.0539 8.21424 6.70119 8.34166 7.32873M14.6667 12.8287C14.6667 13.1934 14.8115 13.5431 15.0694 13.801C15.3273 14.0589 15.677 14.2037 16.0417 14.2037C16.4063 14.2037 16.7561 14.0589 17.0139 13.801C17.2718 13.5431 17.4167 13.1934 17.4167 12.8287C17.4167 12.4641 17.2718 12.1143 17.0139 11.8565C16.7561 11.5986 16.4063 11.4537 16.0417 11.4537C15.677 11.4537 15.3273 11.5986 15.0694 11.8565C14.8115 12.1143 14.6667 12.4641 14.6667 12.8287Z" stroke="#262626" stroke-width="1.3" stroke-linecap="round" stroke-linejoin="round"/>
<path d="M6.41732 7.32231H14.6673C17.2597 7.32231 18.5567 7.32231 19.3616 8.12898C20.1673 8.93381 20.1673 10.2309 20.1673 12.8251V14.6593C20.1673 17.2535 20.1673 18.5506 19.3616 19.3563C18.5567 20.1621 17.2597 20.1621 14.6673 20.1621H9.16732C5.71057 20.1621 3.98173 20.1621 2.90832 19.0877C1.8349 18.0134 1.83398 16.2836 1.83398 12.8251V10.9917C1.83398 7.53223 1.83398 5.8034 2.90832 4.72815C3.77273 3.86373 5.06065 3.69506 7.33398 3.66206H9.16732" stroke="#262626" stroke-width="1.3" stroke-linecap="round" stroke-linejoin="round"/>
</svg>
